<svg width="16" height="16" viewBox="0 0 16 16" fill="none" xmlns="http://www.w3.org/2000/svg">
<path d="M5.66663 6.33317C6.03482 6.33317 6.33329 6.03469 6.33329 5.6665C6.33329 5.29831 6.03482 4.99984 5.66663 4.99984C5.29844 4.99984 4.99996 5.29831 4.99996 5.6665C4.99996 6.03469 5.29844 6.33317 5.66663 6.33317Z" stroke="#A378FF" stroke-linecap="round" stroke-linejoin="round"/>
<path d="M2.66663 4.6665V7.23917C2.66663 7.59717 2.80863 7.9405 3.06196 8.19384L8.47263 13.6045C8.59799 13.7299 8.74682 13.8293 8.91062 13.8972C9.07443 13.9651 9.24999 14 9.42729 14C9.60459 14 9.78016 13.9651 9.94396 13.8972C10.1078 13.8293 10.2566 13.7299 10.382 13.6045L13.6046 10.3818C13.73 10.2565 13.8295 10.1076 13.8973 9.94384C13.9652 9.78004 14.0001 9.60447 14.0001 9.42717C14.0001 9.24987 13.9652 9.0743 13.8973 8.9105C13.8295 8.7467 13.73 8.59787 13.6046 8.4725L8.19329 3.06184C7.94025 2.80884 7.59712 2.66664 7.23929 2.6665H4.66663C4.13619 2.6665 3.62749 2.87722 3.25241 3.25229C2.87734 3.62736 2.66663 4.13607 2.66663 4.6665Z" stroke="#A378FF" stroke-linecap="round" stroke-linejoin="round"/>
</svg>
