<svg xmlns="http://www.w3.org/2000/svg" width="10" height="18" fill="none"><path fill="#000" fill-rule="evenodd" d="M3.74 2.157A4.375 4.375 0 0 1 6.833.875h2.25a.625.625 0 0 1 .625.625v3a.625.625 0 0 1-.625.625h-2.25a.125.125 0 0 0-.125.125v1.625h2.375a.625.625 0 0 1 .607.777l-.75 3a.625.625 0 0 1-.607.473H6.708V16.5a.625.625 0 0 1-.625.625h-3a.625.625 0 0 1-.625-.625v-5.375H.833a.625.625 0 0 1-.625-.625v-3a.625.625 0 0 1 .625-.625h1.625V5.25c0-1.16.461-2.273 1.282-3.093Zm3.093-.032A3.125 3.125 0 0 0 3.708 5.25V7.5a.625.625 0 0 1-.625.625H1.458v1.75h1.625a.625.625 0 0 1 .625.625v5.375h1.75V10.5a.625.625 0 0 1 .625-.625h1.762l.437-1.75H6.083a.625.625 0 0 1-.625-.625V5.25a1.375 1.375 0 0 1 1.375-1.375h1.625v-1.75H6.833Z" clip-rule="evenodd"/></svg>