<svg xmlns="http://www.w3.org/2000/svg" width="78" height="23" fill="none"><path fill="#2A2523" d="M11.451 22.33c-1.62 0-3.12-.27-4.5-.81-1.36-.56-2.56-1.34-3.6-2.34-1.02-1-1.82-2.16-2.4-3.48-.56-1.34-.84-2.79-.84-4.35 0-1.58.29-3.03.87-4.35.6-1.34 1.43-2.5 2.49-3.48 1.06-1 2.29-1.77 3.69-2.31 1.42-.56 2.93-.84 4.53-.84 1.9 0 3.62.34 5.16 1.02 1.54.66 2.79 1.58 3.75 2.76l-3.6 3.6c-.72-.86-1.51-1.5-2.37-1.92-.86-.44-1.86-.66-3-.66-1.16 0-2.2.26-3.12.78-.9.5-1.62 1.21-2.16 2.13-.54.92-.81 2-.81 3.24 0 1.24.25 2.33.75 3.27.52.94 1.22 1.67 2.1 2.19.9.52 1.93.78 3.09.78s2.14-.22 2.94-.66c.82-.44 1.44-1.08 1.86-1.92.44-.84.66-1.84.66-3l3.63 2.34-9.69-.24V9.7h11.46v.81c0 2.54-.46 4.69-1.38 6.45-.92 1.76-2.2 3.1-3.84 4.02-1.62.9-3.51 1.35-5.67 1.35Zm20.491 0c-1.64 0-3.09-.32-4.35-.96-1.26-.66-2.25-1.57-2.97-2.73-.72-1.16-1.08-2.49-1.08-3.99 0-1.48.35-2.79 1.05-3.93.7-1.16 1.65-2.07 2.85-2.73 1.22-.68 2.59-1.02 4.11-1.02 1.48 0 2.79.32 3.93.96 1.16.62 2.06 1.49 2.7 2.61.66 1.1.99 2.36.99 3.78 0 .3-.02.61-.06.93-.02.3-.08.65-.18 1.05l-12.93.06V13l10.86-.09-2.34 1.47c-.02-.82-.14-1.49-.36-2.01-.22-.54-.54-.95-.96-1.23-.42-.28-.95-.42-1.59-.42-.66 0-1.23.16-1.71.48-.48.32-.85.77-1.11 1.35-.26.58-.39 1.28-.39 2.1 0 .84.14 1.56.42 2.16.28.58.68 1.02 1.2 1.32.52.3 1.16.45 1.92.45.72 0 1.35-.12 1.89-.36a4.19 4.19 0 0 0 1.5-1.11l2.73 2.73c-.72.82-1.6 1.44-2.64 1.86-1.02.42-2.18.63-3.48.63ZM42.86 22V1.27h5.22V22h-5.22Zm-3.24-10.32V7.33h11.7v4.35h-11.7ZM58.662 22V7.33h5.25V22h-5.25Zm2.61-16.38c-.78 0-1.43-.26-1.95-.78-.52-.54-.78-1.21-.78-2.01 0-.78.26-1.44.78-1.98s1.17-.81 1.95-.81c.82 0 1.48.27 1.98.81.52.54.78 1.2.78 1.98 0 .8-.26 1.47-.78 2.01-.5.52-1.16.78-1.98.78ZM68.964 22V1.27h5.22V22h-5.22Zm-3.24-10.32V7.33h11.7v4.35h-11.7Z"/></svg>