<svg xmlns="http://www.w3.org/2000/svg" width="56" height="14" fill="none"><path fill="#2A2523" d="M7.675 13.198a7.345 7.345 0 0 1-2.7-.486 6.847 6.847 0 0 1-2.16-1.404 6.633 6.633 0 0 1-1.44-2.088 6.7 6.7 0 0 1-.504-2.61c0-.948.174-1.818.522-2.61a6.34 6.34 0 0 1 1.494-2.088A6.71 6.71 0 0 1 5.101.526 7.341 7.341 0 0 1 7.82.022c1.14 0 2.172.204 3.096.612.924.396 1.674.948 2.25 1.656l-2.16 2.16c-.432-.516-.906-.9-1.422-1.152-.516-.264-1.116-.396-1.8-.396-.696 0-1.32.156-1.872.468-.54.3-.972.726-1.296 1.278-.324.552-.486 1.2-.486 1.944s.15 1.398.45 1.962a3.406 3.406 0 0 0 1.26 1.314c.54.312 1.158.468 1.854.468.696 0 1.284-.132 1.764-.396a2.59 2.59 0 0 0 1.116-1.152c.264-.504.396-1.104.396-1.8l2.178 1.404-5.814-.144V5.62h6.876v.486c0 1.524-.276 2.814-.828 3.87-.552 1.056-1.32 1.86-2.304 2.412-.972.54-2.106.81-3.402.81Zm12.294 0c-.984 0-1.854-.192-2.61-.576a4.519 4.519 0 0 1-1.782-1.638c-.431-.696-.647-1.494-.647-2.394 0-.888.21-1.674.63-2.358.42-.696.99-1.242 1.71-1.638.732-.408 1.553-.612 2.465-.612.889 0 1.675.192 2.358.576a3.993 3.993 0 0 1 1.62 1.566c.396.66.595 1.416.595 2.268a4.5 4.5 0 0 1-.037.558c-.012.18-.047.39-.108.63l-7.758.036V7.6l6.517-.054-1.405.882c-.011-.492-.084-.894-.215-1.206a1.566 1.566 0 0 0-.576-.738c-.252-.168-.57-.252-.954-.252-.396 0-.738.096-1.026.288a1.86 1.86 0 0 0-.666.81c-.156.348-.234.768-.234 1.26 0 .504.084.936.252 1.296.168.348.408.612.72.792.311.18.695.27 1.151.27.432 0 .81-.072 1.134-.216.336-.144.636-.366.9-.666l1.639 1.638c-.433.492-.96.864-1.584 1.116-.613.252-1.308.378-2.088.378ZM26.697 13V.562h3.132V13h-3.132Zm-1.944-6.192v-2.61h12.726v2.61H24.752ZM32.402 13V.562h3.132V13h-3.132Zm10.472.198c-.984 0-1.854-.192-2.61-.576a4.519 4.519 0 0 1-1.782-1.638c-.432-.696-.648-1.494-.648-2.394 0-.888.21-1.674.63-2.358.42-.696.99-1.242 1.71-1.638.732-.408 1.554-.612 2.466-.612.888 0 1.674.192 2.358.576a3.993 3.993 0 0 1 1.62 1.566c.396.66.594 1.416.594 2.268a4.5 4.5 0 0 1-.036.558c-.012.18-.048.39-.108.63l-7.758.036V7.6l6.516-.054-1.404.882c-.012-.492-.084-.894-.216-1.206a1.566 1.566 0 0 0-.576-.738c-.252-.168-.57-.252-.954-.252-.396 0-.738.096-1.026.288a1.86 1.86 0 0 0-.666.81c-.156.348-.234.768-.234 1.26 0 .504.084.936.252 1.296.168.348.408.612.72.792.312.18.696.27 1.152.27.432 0 .81-.072 1.134-.216.336-.144.636-.366.9-.666l1.638 1.638c-.432.492-.96.864-1.584 1.116-.612.252-1.308.378-2.088.378Zm5.52-.198V4.198h3.133V13h-3.132Zm3.133-4.788-1.404-1.188c.348-.996.81-1.746 1.386-2.25.576-.504 1.326-.756 2.25-.756.42 0 .78.054 1.08.162.312.108.576.276.792.504l-1.818 2.43a.936.936 0 0 0-.414-.252 1.45 1.45 0 0 0-.576-.108c-.408 0-.726.126-.954.378-.228.24-.342.6-.342 1.08Z"/></svg>