<svg xmlns="http://www.w3.org/2000/svg" width="18" height="18" fill="none"><path fill="#000" d="M5.5.668h7a4.837 4.837 0 0 1 4.834 4.833v7a4.833 4.833 0 0 1-4.834 4.834h-7A4.837 4.837 0 0 1 .667 12.5v-7A4.833 4.833 0 0 1 5.5.668Zm-.166 1.667a3 3 0 0 0-3 3v7.333c0 1.658 1.341 3 3 3h7.333a3 3 0 0 0 3-3V5.335c0-1.659-1.342-3-3-3H5.334Zm8.041 1.25a1.042 1.042 0 1 1 0 2.083 1.042 1.042 0 0 1 0-2.083ZM9 4.835a4.167 4.167 0 1 1 0 8.333 4.167 4.167 0 0 1 0-8.333ZM9 6.5a2.5 2.5 0 1 0 0 5 2.5 2.5 0 0 0 0-5Z"/></svg>