<svg xmlns="http://www.w3.org/2000/svg" width="17" height="15" fill="none"><path fill="#000" d="M11.75 2.625a2.417 2.417 0 0 0-2.417 2.372L9.31 6.31a.5.5 0 0 1-.567.486l-1.3-.177C5.73 6.386 4.09 5.597 2.516 4.286c-.498 2.759.475 4.67 2.82 6.144l1.455.915a.5.5 0 0 1 .028.827l-1.326.97c.789.049 1.538.014 2.16-.11C11.585 12.247 14.2 9.29 14.2 4.41c0-.398-.844-1.784-2.45-1.784ZM7.666 4.966a4.083 4.083 0 0 1 6.988-2.795c.592-.005 1.096.145 2.224-.538-.28 1.367-.417 1.96-1.012 2.776 0 6.368-3.914 9.465-7.886 10.257-2.723.544-6.683-.349-7.818-1.534.578-.045 2.928-.297 4.287-1.291-1.15-.758-5.724-3.45-2.718-10.686 1.411 1.647 2.842 2.769 4.292 3.364.965.396 1.202.387 1.644.448Z"/></svg>